Coordinates
version=1
nRows=22
nColumns=24
inDegrees=yes

Units are S.I. units (second, meters, Newtons, ...)
Angles are in degrees.

endheader
time	pelvis_tilt	pelvis_list	pelvis_rotation	pelvis_tx	pelvis_ty	pelvis_tz	hip_flexion_r	hip_adduction_r	hip_rotation_r	knee_angle_r	ankle_angle_r	subtalar_angle_r	mtp_angle_r	hip_flexion_l	hip_adduction_l	hip_rotation_l	knee_angle_l	ankle_angle_l	subtalar_angle_l	mtp_angle_l	lumbar_extension	lumbar_bending	lumbar_rotation
      3.05500000	     -1.40926323	      1.78716012	    363.79816795	      0.22591553	      1.39889327	     -1.01650074	      5.95396948	      1.92278986	     -1.27300907	     -7.75293471	     -3.75627668	     -9.73566927	      5.03787529	     11.82236599	      1.54130750	      3.84424560	    -50.72850470	     -3.32419575	     15.29189291	     44.32517182	      4.44715196	      0.18668101	    107.23827041
      3.06000000	     -1.51048443	      1.97322029	    363.77467707	      0.23033986	      1.39925066	     -1.01602411	      5.73765744	      1.76492879	     -1.12444876	     -7.68858568	     -3.60648245	     -9.75906497	      4.93888849	     12.43584029	      1.72897730	      3.63956857	    -50.52967335	     -2.88145011	     14.95675652	     43.85801926	      4.53681788	     -0.05148792	    107.32235197
      3.06500000	     -1.62956486	      2.14538007	    363.76381930	      0.23475612	      1.39955935	     -1.01557192	      5.54804765	      1.62012038	     -1.01205427	     -7.63872185	     -3.43570413	     -9.80498229	      4.78864828	     13.06144694	      1.89999461	      3.42992348	    -50.29322397	     -2.39822079	     14.64934339	     43.23602121	      4.65247413	     -0.27200134	    107.44402177
      3.07000000	     -1.74169775	      2.32038015	    363.75657750	      0.23911813	      1.39985151	     -1.01512434	      5.36232671	      1.47199051	     -0.91635470	     -7.60656644	     -3.24953590	     -9.85409016	      4.64456330	     13.66775964	      2.07124837	      3.21190589	    -49.99877537	     -1.93104915	     14.30052570	     42.64440282	      4.74970051	     -0.50090576	    107.54174805
      3.07500000	     -1.84726254	      2.49215916	    363.74966055	      0.24344722	      1.40014126	     -1.01470306	      5.16113544	      1.32487295	     -0.76920418	     -7.55311826	     -3.08154727	     -9.89438348	      4.53040345	     14.25153776	      2.24208549	      2.99777212	    -49.64156273	     -1.51886002	     13.88612306	     42.13591066	      4.82758462	     -0.72629925	    107.58622553
      3.08000000	     -1.93597282	      2.65310505	    363.75610854	      0.24774293	      1.40041174	     -1.01430757	      4.95489631	      1.18951704	     -0.70326520	     -7.52365587	     -2.88611485	     -9.93836184	      4.35733666	     14.80768923	      2.39910538	      2.78012625	    -49.24470746	     -1.06102949	     13.51185591	     41.46408808	      4.88888291	     -0.93629285	    107.67686681
      3.08500000	     -2.04747651	      2.81958655	    363.75500695	      0.25202502	      1.40064683	     -1.01391362	      4.77217180	      1.04567504	     -0.59680769	     -7.48779229	     -2.70056441	     -9.97453196	      4.23287143	     15.37154677	      2.56199112	      2.55135274	    -48.78475829	     -0.67278261	     13.07483245	     40.93025783	      4.96906931	     -1.15752941	    107.72601045
      3.09000000	     -2.15399303	      2.98456571	    363.74918739	      0.25629481	      1.40087957	     -1.01352824	      4.58026013	      0.90230682	     -0.47128695	     -7.44052859	     -2.52791810	     -9.99543347	      4.14194414	     15.91073543	      2.72186633	      2.31714357	    -48.26171730	     -0.33440795	     12.61739413	     40.46024985	      5.04092098	     -1.37887876	    107.75712003
      3.09500000	     -2.26594538	      3.13390532	    363.75398279	      0.26051936	      1.40105955	     -1.01319294	      4.40840090	      0.77255854	     -0.41152538	     -7.41484268	     -2.32815804	    -10.00919645	      4.01152611	     16.45490643	      2.86797244	      2.07766189	    -47.71717889	      0.02886736	     12.18931993	     39.87101174	      5.11335433	     -1.57172877	    107.83427416
      3.10000000	     -2.34237446	      3.30780818	    363.74347105	      0.26471980	      1.40126465	     -1.01278441	      4.19775959	      0.62377514	     -0.30754877	     -7.38788592	     -2.11902066	    -10.04607039	      3.96350842	     16.92845049	      3.02464447	      1.81693946	    -47.08018492	      0.29409706	     11.79530752	     39.50352879	      5.13050150	     -1.81719432	    107.82166246
      3.10500000	     -2.45952611	      3.44113146	    363.75160189	      0.26895331	      1.40139508	     -1.01251251	      4.03269685	      0.50520104	     -0.27463192	     -7.36574173	     -1.88294405	     -9.97336305	      3.75083977	     17.44221181	      3.15996510	      1.58717220	    -46.43932586	      0.65655686	     11.50549003	     38.70981225	      5.21881916	     -1.98309980	    107.90344104
      3.11000000	     -2.52969581	      3.59742566	    363.73629472	      0.27311823	      1.40155051	     -1.01215066	      3.82133580	      0.37261251	     -0.19071947	     -7.33896099	     -1.69347424	    -10.01257628	      3.73942575	     17.87933220	      3.29788691	      1.31529965	    -45.70582701	      0.86562936	     11.11466792	     38.44774047	      5.22223358	     -2.19996243	    107.89891596
      3.11500000	     -2.63336822	      3.73149036	    363.72165765	      0.27732024	      1.40165320	     -1.01188386	      3.64884098	      0.25384814	     -0.15330019	     -7.31718032	     -1.49384775	     -9.96455106	      3.66900976	     18.33848908	      3.42692160	      1.05290293	    -44.94422475	      1.10730603	     10.73086812	     37.95741389	      5.28668927	     -2.36033403	    108.00481658
      3.12000000	     -2.71551562	      3.88897085	    363.69813440	      0.28147710	      1.40174839	     -1.01152683	      3.45600408	      0.11800578	     -0.07525912	     -7.29615540	     -1.28028977	     -9.97174849	      3.66024427	     18.75185103	      3.55952448	      0.75985751	    -44.11114987	      1.26173657	     10.51150668	     37.68196629	      5.30520490	     -2.57776773	    107.99674118
      3.12500000	     -2.78776010	      4.03385345	    363.66211163	      0.28565407	      1.40183336	     -1.01122399	      3.25433149	     -0.00775960	     -0.01338966	     -7.27754997	     -1.07055478	     -9.94295583	      3.64267832	     19.12988780	      3.68274629	      0.46040147	    -43.22762178	      1.41511629	     10.27654135	     37.34618614	      5.32199748	     -2.76243427	    108.06111652
      3.13000000	     -2.87298979	      4.17390762	    363.61840088	      0.28981783	      1.40187565	     -1.01093144	      3.07391344	     -0.13022070	      0.04753333	     -7.26675514	     -0.85439426	     -9.89934913	      3.62837727	     19.50586949	      3.79797912	      0.14776946	    -42.30079336	      1.55251458	     10.11909633	     37.02076989	      5.35026557	     -2.93419856	    108.12832771
      3.13500000	     -2.95600747	      4.29776780	    363.56548700	      0.29401005	      1.40189644	     -1.01068136	      2.89462423	     -0.23922393	      0.08476502	     -7.26348214	     -0.61832990	     -9.78679508	      3.55880876	     19.85560227	      3.89812262	     -0.16855965	    -41.33120706	      1.74704377	     10.04279031	     36.54677660	      5.39152599	     -3.07157644	    108.28441938
      3.14000000	     -3.04117162	      4.43384725	    363.53586444	      0.29813412	      1.40188803	     -1.01042548	      2.72062571	     -0.35977187	      0.14069036	     -7.25824197	     -0.44855203	     -9.80040441	      3.57309904	     20.19238448	      4.01595444	     -0.46169275	    -40.29573720	      1.82081521	     10.03692945	     36.41769962	      5.40286874	     -3.25037617	    108.24203404
      3.14500000	     -3.08359881	      4.56600498	    363.44318301	      0.30228426	      1.40190018	     -1.01010329	      2.50517600	     -0.46935279	      0.24266754	     -7.25541569	     -0.20867118	     -9.74919447	      3.59823401	     20.44834046	      4.09597837	     -0.85078637	    -39.19910273	      1.84526335	     10.05575347	     36.20794368	      5.38250784	     -3.40926445	    108.35471890
      3.15000000	     -3.15421663	      4.69445787	    363.37145884	      0.30644865	      1.40186430	     -1.00986081	      2.32130322	     -0.58287305	      0.31666225	     -7.25696987	      0.00046331	     -9.70738275	      3.61909892	     20.71134628	      4.19147642	     -1.20214346	    -38.04910986	      1.88103482	     10.14477334	     36.04440360	      5.40049617	     -3.55595238	    108.45441809
      3.15500000	     -3.21894482	      4.82523781	    363.27496997	      0.31062210	      1.40181542	     -1.00962392	      2.13562800	     -0.70065375	      0.40994291	     -7.26260884	      0.20101548	     -9.62544896	      3.63483752	     20.93537485	      4.28334686	     -1.58006756	    -36.83517522	      1.92392288	     10.29823459	     35.89099076	      5.41375167	     -3.69061994	    108.59952129
      3.16000000	     -3.27827370	      4.94702184	    363.20106118	      0.31475308	      1.40173115	     -1.00942365	      1.94813086	     -0.80871253	      0.48727828	     -7.27495251	      0.42603405	     -9.60853935	      3.66499460	     21.14050032	      4.37587299	     -1.93808698	    -35.57900662	      1.87893037	     10.49308745	     35.80425927	      5.40441270	     -3.82430276	    108.66703917
